<svg width="29" height="27" viewBox="0 0 29 27" fill="none" xmlns="http://www.w3.org/2000/svg">
<path d="M17.2586 0.574829C11.1131 0.574829 6.13438 5.21018 6.13438 10.9319C6.13438 13.4051 7.06328 15.6727 8.61523 17.4551L0.96875 24.5742C0.515625 24.9961 0.515625 25.6764 0.96875 26.0983C1.42188 26.5201 2.15254 26.5201 2.60566 26.0983L10.2521 18.9791C12.1666 20.424 14.6021 21.2889 17.2586 21.2889C23.4041 21.2889 28.3828 16.6535 28.3828 10.9319C28.3828 5.21018 23.3984 0.574829 17.2586 0.574829ZM17.2586 19.1373C12.3932 19.1373 8.44531 15.4617 8.44531 10.9319C8.44531 6.40198 12.3932 2.72639 17.2586 2.72639C22.124 2.72639 26.0719 6.40198 26.0719 10.9319C26.0719 15.4617 22.124 19.1373 17.2586 19.1373Z" fill="black"/>
</svg>
