<svg width="67" height="55" viewBox="0 0 67 55" fill="none" xmlns="http://www.w3.org/2000/svg">
<g clip-path="url(#clip0_236_73)">
<path d="M62.0165 46.9042H31.0944C29.2407 46.91 27.4394 46.3266 25.9841 45.249C24.5288 44.1715 23.5052 42.6633 23.0799 40.97L22.2632 37.7605C22.2656 37.7406 22.2656 37.7205 22.2632 37.7006L15.5249 11.2395H67V31.4371C66.9967 33.4102 66.1599 35.3015 64.6732 36.6967C63.1865 38.0919 61.1711 38.8771 59.0685 38.8802H25.8301L26.162 40.2754C26.4216 41.3126 27.0481 42.2366 27.9393 42.8967C28.8304 43.5568 29.9336 43.914 31.0689 43.9102H62.0165C62.4396 43.9102 62.8454 44.0679 63.1445 44.3486C63.4437 44.6294 63.6118 45.0101 63.6118 45.4072C63.6118 45.8042 63.4437 46.185 63.1445 46.4657C62.8454 46.7465 62.4396 46.9042 62.0165 46.9042ZM25.0708 35.8862H59.0685C59.6911 35.8862 60.3076 35.7711 60.8828 35.5475C61.4581 35.324 61.9807 34.9962 62.421 34.5831C62.8612 34.17 63.2104 33.6795 63.4487 33.1397C63.6869 32.5999 63.8096 32.0214 63.8096 31.4371V14.2335H19.5704L25.0708 35.8862Z" fill="black"/>
<path d="M17.5476 14.2336C17.206 14.2334 16.8734 14.1304 16.5989 13.9396C16.3243 13.7488 16.1223 13.4803 16.0226 13.1737L13.7701 6.24554C13.4695 5.30209 12.8514 4.4754 12.0082 3.88924C11.165 3.30309 10.1422 2.98901 9.09286 2.99405H1.59524C1.17215 2.99405 0.7664 2.83633 0.467234 2.55558C0.168069 2.27484 0 1.89407 0 1.49704C0 1.10001 0.168069 0.71924 0.467234 0.438497C0.7664 0.157754 1.17215 3.38835e-05 1.59524 3.38835e-05H9.09286C10.829 -0.0048453 12.5202 0.517344 13.914 1.48864C15.3079 2.45994 16.3296 3.82824 16.8266 5.38926L19.0727 12.3174C19.196 12.697 19.1538 13.107 18.9551 13.4573C18.7565 13.8076 18.4178 14.0696 18.0134 14.1857C17.8619 14.2248 17.7046 14.241 17.5476 14.2336Z" fill="black"/>
<path d="M33.5 55C32.6872 55 31.8927 54.7738 31.2169 54.3501C30.5412 53.9264 30.0145 53.3241 29.7034 52.6194C29.3924 51.9148 29.311 51.1394 29.4696 50.3914C29.6281 49.6433 30.0195 48.9562 30.5942 48.4169C31.1689 47.8776 31.9011 47.5103 32.6983 47.3615C33.4954 47.2127 34.3217 47.2891 35.0725 47.581C35.8234 47.8728 36.4652 48.3671 36.9167 49.0013C37.3683 49.6354 37.6093 50.381 37.6093 51.1437C37.6076 52.166 37.1741 53.1459 36.4038 53.8688C35.6335 54.5916 34.5893 54.9984 33.5 55ZM33.5 50.2814C33.3182 50.2814 33.1406 50.332 32.9895 50.4267C32.8384 50.5215 32.7206 50.6562 32.651 50.8137C32.5815 50.9713 32.5633 51.1447 32.5988 51.3119C32.6342 51.4792 32.7217 51.6328 32.8502 51.7534C32.9787 51.874 33.1425 51.9561 33.3207 51.9894C33.4989 52.0227 33.6837 52.0056 33.8516 51.9403C34.0195 51.8751 34.163 51.7646 34.264 51.6228C34.3649 51.481 34.4188 51.3142 34.4188 51.1437C34.4138 50.9181 34.3148 50.7034 34.143 50.5456C33.9712 50.3877 33.7404 50.2993 33.5 50.2994V50.2814Z" fill="black"/>
<path d="M56.1079 55C55.2951 55 54.5006 54.7738 53.8248 54.3501C53.1491 53.9264 52.6224 53.3241 52.3113 52.6194C52.0003 51.9148 51.9189 51.1394 52.0775 50.3914C52.2361 49.6433 52.6274 48.9562 53.2021 48.4169C53.7768 47.8776 54.5091 47.5103 55.3062 47.3615C56.1033 47.2127 56.9296 47.2891 57.6804 47.581C58.4313 47.8728 59.0731 48.3671 59.5247 49.0013C59.9762 49.6354 60.2172 50.381 60.2172 51.1437C60.2155 52.166 59.782 53.1459 59.0117 53.8688C58.2415 54.5916 57.1972 54.9984 56.1079 55ZM56.1079 50.2814C55.9261 50.2814 55.7485 50.332 55.5974 50.4267C55.4463 50.5215 55.3285 50.6562 55.259 50.8137C55.1894 50.9713 55.1712 51.1447 55.2067 51.3119C55.2421 51.4792 55.3296 51.6328 55.4581 51.7534C55.5866 51.874 55.7504 51.9561 55.9286 51.9894C56.1069 52.0227 56.2916 52.0056 56.4595 51.9403C56.6274 51.8751 56.7709 51.7646 56.8719 51.6228C56.9728 51.481 57.0267 51.3142 57.0267 51.1437C57.0217 50.9181 56.9227 50.7034 56.7509 50.5456C56.5791 50.3877 56.3483 50.2993 56.1079 50.2994V50.2814Z" fill="black"/>
</g>
<defs>
<clipPath id="clip0_236_73">
<rect width="67" height="55" fill="white"/>
</clipPath>
</defs>
</svg>
