<svg width="45" height="43" viewBox="0 0 45 43" fill="none" xmlns="http://www.w3.org/2000/svg">
<g clip-path="url(#clip0_261_48)">
<path d="M26.5144 21.5L44.7062 4.11763C45.0977 3.74301 45.0977 3.13601 44.7062 2.76139L42.1117 0.28085C41.9235 0.101469 41.6675 0 41.4015 0C41.1351 0 40.8796 0.101469 40.6914 0.28085L22.5001 17.6637L4.30876 0.28085C3.93189 -0.0792723 3.26489 -0.0788193 2.88897 0.28085L0.294947 2.76139C-0.097095 3.13601 -0.097095 3.74301 0.294947 4.11763L18.4863 21.5L0.294947 38.8824C-0.097095 39.257 -0.097095 39.864 0.294947 40.2386L2.88944 42.7192C3.07764 42.8985 3.33316 43 3.59957 43C3.86599 43 4.12103 42.8985 4.30923 42.7192L22.5006 25.3363L40.6919 42.7192C40.8801 42.8985 41.1361 43 41.402 43C41.668 43 41.924 42.8985 42.1122 42.7192L44.7066 40.2386C45.0982 39.864 45.0982 39.257 44.7066 38.8824L26.5144 21.5Z" fill="#5A8060"/>
</g>
<defs>
<clipPath id="clip0_261_48">
<rect width="45" height="43" fill="white"/>
</clipPath>
</defs>
</svg>
