<svg width="78" height="72" viewBox="0 0 78 72" fill="none" xmlns="http://www.w3.org/2000/svg">
<path d="M39 0C17.5369 0 0 16.1074 0 36C0 55.8121 17.4497 72 39 72C60.5503 72 78 55.8121 78 36C78 16.1879 60.4631 0 39 0ZM39 18.443C45.6309 18.443 51.1275 23.4362 51.1275 29.6376C51.1275 35.7584 45.7181 40.8322 39 40.8322C32.2819 40.8322 26.8725 35.7584 26.8725 29.557C26.8725 23.4362 32.3691 18.443 39 18.443ZM39 64.5906C31.5839 64.5906 24.7785 62.1745 19.4564 58.1477C25.0403 52.5101 31.8456 49.3691 39 49.3691C46.1544 49.3691 53.047 52.4295 58.5436 58.1477C53.2215 62.1745 46.4161 64.5906 39 64.5906Z" fill="#5A8060"/>
</svg>
